<?xml version="1.0" standalone="no"?>
<!DOCTYPE svg PUBLIC "-//W3C//DTD SVG 20010904//EN"
 "http://www.w3.org/TR/2001/REC-SVG-20010904/DTD/svg10.dtd">
<svg version="1.0" xmlns="http://www.w3.org/2000/svg"
 width="291.000000pt" height="291.000000pt" viewBox="0 0 291.000000 291.000000"
 preserveAspectRatio="xMidYMid meet">
<metadata>
Created by potrace 1.11, written by Peter Selinger 2001-2013
</metadata>
<g transform="translate(0.000000,291.000000) scale(0.100000,-0.100000)"
fill="#000000" stroke="none">
<path d="M56 2891 c-16 -11 -35 -30 -42 -43 -11 -18 -13 -298 -14 -1394 l0
-1371 23 -34 c12 -18 33 -36 47 -40 14 -4 638 -7 1388 -8 1200 -1 1366 1 1392
14 64 33 60 -61 60 1440 0 1501 4 1407 -60 1440 -25 13 -194 15 -1397 15
-1335 0 -1369 -1 -1397 -19z m1355 -659 c69 -88 165 -180 195 -188 25 -6 91
-1 149 11 255 53 329 63 380 49 38 -10 130 -165 160 -268 43 -147 -27 -189
-233 -137 -126 32 -166 35 -185 16 -26 -26 -17 -61 53 -209 107 -227 108 -275
5 -296 -85 -18 -440 -15 -625 5 -14 2 -36 4 -50 5 -14 1 13 10 60 20 204 44
310 100 310 164 0 69 -112 211 -203 258 -48 24 -105 27 -277 12 -58 -4 -162
-9 -232 -9 -111 0 -130 2 -153 20 -51 38 -124 201 -125 276 0 51 28 83 71 81
19 -1 111 -20 204 -43 94 -22 179 -42 190 -44 11 -1 49 -8 85 -14 78 -13 140
-14 159 -2 11 7 7 17 -18 48 -56 70 -96 232 -106 429 l-4 86 69 -102 c38 -56
93 -131 121 -168z m-429 -1144 c-18 -22 -62 -164 -64 -207 -1 -46 18 -80 76
-133 42 -38 55 -46 226 -135 147 -77 184 -111 175 -159 -2 -11 -4 -30 -4 -42
-1 -33 -59 -88 -106 -101 -73 -21 -207 -24 -276 -6 -194 49 -376 214 -454 410
-66 166 -36 252 110 313 53 22 108 38 165 47 20 3 49 9 65 13 16 5 45 9 64 11
27 1 32 -1 23 -11z"/>
</g>
</svg>
