<?xml version="1.0" standalone="no"?>
<!DOCTYPE svg PUBLIC "-//W3C//DTD SVG 20010904//EN"
 "http://www.w3.org/TR/2001/REC-SVG-20010904/DTD/svg10.dtd">
<svg version="1.0" xmlns="http://www.w3.org/2000/svg"
 width="549.000000pt" height="549.000000pt" viewBox="0 0 549.000000 549.000000"
 preserveAspectRatio="xMidYMid meet">
<metadata>
Created by potrace 1.11, written by Peter Selinger 2001-2013
</metadata>
<g transform="translate(0.000000,549.000000) scale(0.100000,-0.100000)"
fill="#000000" stroke="none">
<path d="M4127 5475 c-37 -36 -40 -80 -35 -417 l6 -328 -49 0 c-70 0 -74 -19
-15 -78 35 -37 48 -58 55 -95 13 -74 74 -127 144 -127 96 0 127 149 130 630 2
213 1 227 -20 265 -26 48 -71 92 -137 134 -57 36 -59 36 -79 16z"/>
<path d="M3265 5357 c-10 -16 -19 -56 -22 -104 -4 -58 -13 -93 -35 -137 -21
-42 -32 -82 -38 -144 -5 -47 -8 -87 -7 -89 2 -1 23 25 47 57 59 82 86 96 190
103 93 5 151 24 192 64 60 58 43 119 -54 184 -72 49 -136 75 -206 85 -46 6
-51 4 -67 -19z"/>
<path d="M3800 4766 c-25 -7 -54 -9 -65 -5 -37 14 -71 9 -92 -13 -36 -40 -56
-91 -60 -158 -4 -53 0 -71 16 -98 57 -90 164 -95 235 -12 23 28 26 40 26 104
0 72 0 73 41 109 29 26 39 43 37 59 -3 20 -10 23 -48 25 -25 1 -65 -4 -90 -11z"/>
<path d="M4573 4745 c-38 -16 -39 -18 -16 -56 17 -28 17 -30 -4 -44 -13 -9
-23 -28 -25 -48 -2 -25 -10 -35 -35 -46 -42 -18 -48 -56 -7 -41 42 16 97 11
162 -15 97 -39 141 -33 211 31 45 40 51 66 24 104 -27 39 -55 59 -104 74 -25
8 -64 23 -87 35 -48 24 -74 26 -119 6z"/>
<path d="M3055 4737 c-87 -29 -110 -58 -81 -102 10 -15 14 -35 10 -49 -7 -29
20 -57 86 -91 124 -63 234 -70 316 -19 63 39 88 73 76 104 -6 16 -5 31 2 42
15 25 -19 67 -79 98 -42 21 -63 25 -169 27 -80 2 -134 -2 -161 -10z"/>
<path d="M4402 4433 c-10 -16 -31 -50 -47 -78 -16 -27 -70 -107 -122 -177 -51
-70 -117 -164 -146 -210 -30 -46 -78 -114 -106 -152 -29 -38 -70 -107 -91
-153 -22 -46 -69 -129 -105 -185 -37 -55 -80 -134 -96 -175 -38 -95 -61 -141
-116 -228 -38 -61 -40 -66 -12 -35 105 116 145 154 242 233 144 118 166 142
223 244 27 49 58 97 70 108 12 11 30 34 41 52 10 17 51 61 91 98 54 50 92 99
153 198 139 223 192 324 186 350 -8 30 -108 137 -129 137 -9 0 -25 -12 -36
-27z"/>
<path d="M3405 4344 c-71 -47 -159 -101 -194 -121 l-64 -36 -65 12 c-77 14
-82 11 -82 -66 0 -41 8 -68 42 -133 48 -94 72 -115 120 -105 91 18 98 27 98
140 l0 71 100 114 c160 184 182 210 178 209 -1 -1 -61 -39 -133 -85z"/>
<path d="M2100 3449 c-296 -26 -337 -40 -775 -262 -206 -104 -261 -136 -263
-153 -4 -31 26 -35 89 -12 260 94 369 117 594 125 148 5 162 4 184 -14 23 -19
23 -20 6 -52 -9 -18 -49 -68 -88 -110 -40 -42 -112 -123 -162 -178 l-90 -102
-10 64 c-13 78 -37 107 -112 135 -56 21 -166 27 -192 11 -11 -7 -13 -27 -8
-88 3 -43 8 -85 12 -94 8 -21 71 -56 152 -83 l67 -23 -47 -27 c-26 -15 -71
-31 -102 -35 -60 -8 -86 -26 -85 -57 0 -10 1 -49 3 -86 1 -37 7 -72 14 -79 7
-7 38 -12 70 -12 69 -1 229 54 423 144 137 64 291 117 415 144 212 45 298 91
235 125 -34 18 -23 35 40 64 83 38 128 95 211 259 54 109 69 148 69 183 0 118
-85 190 -253 213 -89 12 -256 12 -397 0z m333 -260 c-2 -56 -59 -252 -94 -321
-22 -44 -39 -47 -112 -22 -52 18 -55 24 -28 62 41 60 55 100 61 174 7 90 20
109 95 144 71 34 80 30 78 -37z"/>
<path d="M854 2986 c-52 -78 -61 -165 -33 -324 30 -174 69 -330 87 -348 21
-21 132 -15 182 11 48 24 90 65 90 88 0 10 -9 54 -20 96 -13 51 -19 105 -18
157 3 98 -10 137 -74 222 -58 77 -88 105 -140 133 l-38 19 -36 -54z"/>
<path d="M2433 2564 c-9 -4 -13 -30 -13 -78 0 -64 -4 -78 -28 -115 -54 -80
-204 -242 -243 -261 -65 -34 -66 -33 -61 84 6 130 1 148 -42 171 -32 18 -36
18 -60 2 -24 -16 -26 -23 -26 -90 0 -63 -4 -79 -29 -118 -29 -46 -194 -243
-224 -268 -22 -18 -23 -87 -1 -95 25 -10 88 -7 123 5 20 7 38 24 51 48 16 31
19 34 26 17 4 -11 2 -51 -5 -90 -17 -106 -50 -434 -57 -576 -4 -80 -12 -137
-22 -159 -12 -26 -16 -71 -16 -190 -1 -169 -1 -170 -78 -306 -20 -35 -23 -57
-26 -176 l-3 -137 36 -35 c21 -20 60 -44 89 -53 61 -21 148 -23 170 -5 21 17
21 74 0 134 -9 26 -14 54 -11 61 6 15 103 40 199 51 66 8 97 -6 122 -54 17
-33 61 -54 102 -49 24 3 30 9 37 43 22 105 30 126 57 140 38 20 159 33 373 41
166 6 187 8 187 23 0 9 -5 22 -11 28 -8 8 -6 19 7 42 16 27 17 33 3 46 -8 8
-41 20 -74 26 -33 6 -77 21 -97 35 -48 31 -76 30 -138 -2 -54 -28 -246 -72
-273 -61 -14 5 -17 20 -16 94 1 48 4 115 8 148 6 57 7 61 41 72 19 7 52 10 73
8 39 -6 117 21 131 44 10 15 -30 78 -62 99 -14 9 -53 19 -87 22 -53 4 -60 8
-63 28 -13 92 138 298 270 367 l56 29 62 -17 c59 -17 64 -17 81 -1 26 24 25
93 -2 127 -25 33 -137 87 -178 87 -18 0 -46 -7 -62 -16 -17 -8 -34 -13 -37 -9
-14 13 114 239 161 283 17 16 47 27 93 35 84 15 91 19 103 64 20 73 -44 147
-157 179 -53 16 -57 15 -163 -12 -59 -16 -110 -26 -113 -23 -3 3 13 41 35 85
31 61 39 86 34 107 -9 35 -52 79 -102 102 -38 19 -127 29 -150 19z m159 -595
c-18 -42 -187 -336 -201 -352 -8 -8 -347 -137 -360 -137 -4 0 5 75 20 168 16
92 29 170 29 174 0 4 32 10 71 14 62 6 93 18 257 99 103 51 191 89 195 85 5
-4 0 -27 -11 -51z m-327 -659 c-63 -64 -217 -180 -261 -197 -15 -6 -16 2 -12
91 3 54 10 102 15 107 7 7 24 7 52 -1 36 -9 51 -7 132 20 51 17 99 35 108 40
41 24 30 4 -34 -60z m75 -101 c0 -17 -5 -50 -11 -75 -10 -39 -18 -48 -58 -68
-45 -23 -171 -68 -223 -80 -37 -8 -47 13 -17 37 13 10 53 34 89 52 42 21 90
59 134 104 38 38 73 68 78 65 4 -3 8 -19 8 -35z m-140 -322 c0 -17 -223 -197
-244 -197 -11 0 -6 71 8 104 10 23 27 39 62 56 97 46 174 62 174 37z m90 -93
c6 -14 10 -61 10 -104 l0 -78 -48 -16 c-48 -16 -239 -56 -267 -56 -30 0 -13
31 52 96 82 82 209 184 229 184 8 0 19 -12 24 -26z"/>
<path d="M1399 2163 c-2 -5 -71 -72 -152 -148 -92 -87 -170 -170 -203 -217
-30 -43 -71 -92 -91 -110 -157 -141 -161 -149 -108 -254 20 -42 44 -78 52 -81
24 -9 103 37 124 72 50 86 66 107 105 135 40 28 123 65 130 57 12 -12 -112
-209 -226 -361 -74 -98 -182 -253 -240 -344 -58 -91 -113 -169 -123 -174 -9
-4 -25 -12 -35 -16 -9 -5 -23 -26 -30 -48 -11 -34 -11 -41 6 -64 17 -22 27
-25 97 -28 l77 -3 107 104 c124 120 251 212 251 181 0 -9 -150 -245 -223 -349
-82 -118 -110 -154 -207 -260 -40 -44 -84 -97 -98 -118 l-25 -38 22 -23 c30
-32 102 -66 140 -66 35 0 79 31 256 179 142 118 226 202 311 309 41 51 129
149 196 218 66 69 118 127 115 130 -3 3 -86 -47 -184 -111 -160 -105 -191
-130 -310 -251 -118 -120 -153 -150 -153 -126 0 4 45 68 100 142 55 74 112
155 127 180 38 65 137 191 274 351 65 77 119 143 119 148 0 5 3 16 6 25 3 9
-10 32 -36 60 -39 42 -46 46 -90 46 -43 0 -57 -6 -129 -60 -44 -33 -129 -102
-188 -153 -107 -92 -165 -137 -177 -137 -11 0 14 40 127 205 119 173 149 211
299 381 67 77 110 117 136 127 54 22 83 58 89 110 5 44 4 45 -47 86 -71 56
-101 55 -233 -9 -57 -27 -109 -50 -116 -50 -21 0 29 78 103 159 69 76 126 149
126 160 -1 24 -63 53 -71 34z"/>
</g>
</svg>
