<svg width="1440" height="335" viewBox="0 0 1440 335" fill="none" xmlns="http://www.w3.org/2000/svg">
<g clip-path="url(#clip0)">
<rect width="1440" height="335" fill="white"/>
<g filter="url(#filter0_d)">
<path d="M1024 134C1024 195.304 974.304 245 913 245C851.696 245 802 195.304 802 134C802 72.6964 851.696 23 913 23C974.304 23 1024 72.6964 1024 134Z" fill="#FF9040"/>
<path d="M1024 134C1024 195.304 974.304 245 913 245C851.696 245 802 195.304 802 134C802 72.6964 851.696 23 913 23C974.304 23 1024 72.6964 1024 134Z" fill="white" fill-opacity="0.35"/>
</g>
<path d="M717.392 198.996C704.806 203.358 684.717 226.66 676.246 237.766V337.112H1455.6C1460.24 279.564 1464.32 164.467 1443.5 164.467C1417.48 164.467 1378.15 148.717 1350.92 146.9C1323.69 145.082 1275.89 108.736 1263.18 107.524C1250.48 106.313 1229.9 116.005 1212.36 116.005C1194.81 116.005 1186.34 92.9858 1181.5 82.6876C1176.66 72.3895 1154.27 66.9376 1136.11 65.1202C1117.96 63.3029 1102.83 82.6876 1090.13 82.6876C1077.42 82.6876 1065.92 68.1491 1056.24 72.9953C1046.56 77.8414 999.364 116.005 987.262 122.669C975.16 129.332 946.721 127.515 935.829 132.361C924.938 137.207 889.843 166.284 874.715 171.13C859.588 175.977 820.257 179.006 811.786 179.006C803.315 179.006 795.448 171.13 786.977 171.13C778.506 171.13 754.302 193.544 744.621 198.996C734.939 204.448 733.124 193.544 717.392 198.996Z" fill="#275D9D"/>
<path d="M609.152 193.024C629.648 199.472 692.886 200.189 721.944 199.741V337.112H-30V223.252C-15.5822 224.148 13.3865 225.402 13.9188 223.252C14.5843 220.565 25.8967 205.115 29.2239 207.13C32.5511 209.145 41.2018 207.13 44.5289 205.115C47.8561 203.1 50.5179 200.077 52.5142 200.077C54.5105 200.077 71.1464 181.604 74.8063 181.604C78.4662 181.604 80.7953 187.314 84.7879 189.665C88.7805 192.016 93.1059 192.352 96.433 189.665C99.7602 186.978 105.749 181.604 109.742 181.604C113.734 181.604 121.387 178.917 124.049 175.222C126.71 171.528 145.01 158.429 150.999 158.093C156.988 157.757 179.945 162.123 181.942 162.123C183.938 162.123 190.26 154.063 192.921 154.063C195.583 154.063 202.903 151.711 205.897 150.032C208.892 148.353 226.193 144.658 231.184 143.315C236.175 141.971 247.487 146.673 257.136 147.009C266.785 147.345 288.744 146.338 293.735 150.032C298.726 153.727 311.702 156.414 317.358 154.063C323.014 151.711 339.65 132.231 341.647 132.231C343.643 132.231 346.305 134.582 348.301 137.605C350.297 140.628 351.961 142.307 362.608 143.315C373.255 144.322 394.549 133.91 397.876 132.231C401.203 130.552 422.164 96.6286 424.161 93.9416C426.157 91.2546 437.47 89.5753 443.791 88.9035C450.113 88.2318 465.751 109.056 492.368 132.231C518.986 155.406 583.533 184.963 609.152 193.024Z" fill="#275D9D"/>
<path d="M1078.7 160.136C1081.61 159.721 1087.53 156.501 1089.61 155.982L1092.2 155.462C1094.8 154.943 1096.36 156.501 1099.99 157.02C1103.63 157.54 1114.53 160.136 1116.61 161.694C1118.69 163.252 1120.25 162.213 1121.8 163.771C1123.36 165.329 1137.9 170.522 1142.06 171.041C1146.21 171.561 1152.44 174.157 1153.48 174.676C1154.52 175.196 1157.12 174.676 1161.27 175.196C1165.42 175.715 1186.72 182.985 1192.95 184.543C1199.18 186.101 1222.03 185.582 1225.14 186.62C1228.26 187.659 1249.55 199.083 1254.74 199.083C1259.94 199.083 1264.61 201.161 1266.69 201.161C1268.77 201.161 1280.19 205.834 1282.27 205.834C1284.34 205.834 1291.09 207.392 1293.69 207.392C1296.29 207.392 1302.52 209.469 1306.15 210.508C1309.79 211.547 1312.91 210.508 1313.94 210.508C1314.98 210.508 1327.45 216.74 1337.83 217.778C1348.22 218.817 1356.01 216.74 1358.6 216.22C1361.2 215.701 1366.91 216.74 1370.03 217.259C1373.14 217.778 1376.78 214.143 1380.41 214.143C1384.05 214.143 1393.92 217.259 1397.03 217.778C1400.15 218.298 1410.53 217.778 1413.13 218.298C1415.73 218.817 1421.96 220.894 1424.04 221.413C1426.11 221.933 1430.27 221.413 1434.94 221.413C1438.68 221.413 1441.69 223.144 1442.73 224.01H1459.35V337.217H215.109V302.424C229.822 298.962 263.923 290.584 282.618 284.768C305.986 277.497 376.091 256.206 392.19 253.09C408.288 249.975 433.214 247.897 443.6 245.301C453.986 242.705 516.821 231.799 522.533 231.28C528.246 230.761 556.807 230.241 569.27 230.241C581.733 230.241 594.716 225.568 603.544 224.529C612.372 223.49 640.414 225.048 648.204 225.048C655.993 225.048 669.495 223.49 674.169 222.971C678.842 222.452 702.211 215.182 706.365 214.662C710.519 214.143 739.081 214.662 743.235 215.182C747.39 215.701 757.776 215.182 759.853 215.182C761.93 215.182 778.028 213.624 788.933 213.105C799.839 212.585 818.014 209.989 825.804 208.95C833.593 207.912 837.228 204.276 840.344 203.757C843.46 203.238 848.653 203.238 852.807 202.199C856.962 201.161 867.347 200.641 875.656 199.083C883.965 197.526 893.312 193.371 895.909 192.852C898.505 192.333 901.621 193.371 905.256 193.371C908.891 193.371 930.183 189.217 936.933 188.697C943.684 188.178 962.379 189.736 965.495 188.697C968.611 187.659 966.533 185.062 970.169 182.985C973.804 180.908 976.4 180.908 977.958 180.908C979.516 180.908 999.249 176.754 1003.92 175.196C1008.6 173.638 1023.66 171.561 1027.29 170.522C1030.93 169.483 1037.68 163.252 1040.27 163.771C1042.87 164.29 1056.89 166.368 1058.45 166.368C1060.01 166.368 1061.57 163.252 1065.72 161.694C1069.87 160.136 1075.07 160.655 1078.7 160.136Z" fill="#275D9D"/>
<path d="M1078.7 160.136C1081.61 159.721 1087.53 156.501 1089.61 155.982L1092.2 155.462C1094.8 154.943 1096.36 156.501 1099.99 157.02C1103.63 157.54 1114.53 160.136 1116.61 161.694C1118.69 163.252 1120.25 162.213 1121.8 163.771C1123.36 165.329 1137.9 170.522 1142.06 171.041C1146.21 171.561 1152.44 174.157 1153.48 174.676C1154.52 175.196 1157.12 174.676 1161.27 175.196C1165.42 175.715 1186.72 182.985 1192.95 184.543C1199.18 186.101 1222.03 185.582 1225.14 186.62C1228.26 187.659 1249.55 199.083 1254.74 199.083C1259.94 199.083 1264.61 201.161 1266.69 201.161C1268.77 201.161 1280.19 205.834 1282.27 205.834C1284.34 205.834 1291.09 207.392 1293.69 207.392C1296.29 207.392 1302.52 209.469 1306.15 210.508C1309.79 211.547 1312.91 210.508 1313.94 210.508C1314.98 210.508 1327.45 216.74 1337.83 217.778C1348.22 218.817 1356.01 216.74 1358.6 216.22C1361.2 215.701 1366.91 216.74 1370.03 217.259C1373.14 217.778 1376.78 214.143 1380.41 214.143C1384.05 214.143 1393.92 217.259 1397.03 217.778C1400.15 218.298 1410.53 217.778 1413.13 218.298C1415.73 218.817 1421.96 220.894 1424.04 221.413C1426.11 221.933 1430.27 221.413 1434.94 221.413C1438.68 221.413 1441.69 223.144 1442.73 224.01H1459.35V337.217H215.109V302.424C229.822 298.962 263.923 290.584 282.618 284.768C305.986 277.497 376.091 256.206 392.19 253.09C408.288 249.975 433.214 247.897 443.6 245.301C453.986 242.705 516.821 231.799 522.533 231.28C528.246 230.761 556.807 230.241 569.27 230.241C581.733 230.241 594.716 225.568 603.544 224.529C612.372 223.49 640.414 225.048 648.204 225.048C655.993 225.048 669.495 223.49 674.169 222.971C678.842 222.452 702.211 215.182 706.365 214.662C710.519 214.143 739.081 214.662 743.235 215.182C747.39 215.701 757.776 215.182 759.853 215.182C761.93 215.182 778.028 213.624 788.933 213.105C799.839 212.585 818.014 209.989 825.804 208.95C833.593 207.912 837.228 204.276 840.344 203.757C843.46 203.238 848.653 203.238 852.807 202.199C856.962 201.161 867.347 200.641 875.656 199.083C883.965 197.526 893.312 193.371 895.909 192.852C898.505 192.333 901.621 193.371 905.256 193.371C908.891 193.371 930.183 189.217 936.933 188.697C943.684 188.178 962.379 189.736 965.495 188.697C968.611 187.659 966.533 185.062 970.169 182.985C973.804 180.908 976.4 180.908 977.958 180.908C979.516 180.908 999.249 176.754 1003.92 175.196C1008.6 173.638 1023.66 171.561 1027.29 170.522C1030.93 169.483 1037.68 163.252 1040.27 163.771C1042.87 164.29 1056.89 166.368 1058.45 166.368C1060.01 166.368 1061.57 163.252 1065.72 161.694C1069.87 160.136 1075.07 160.655 1078.7 160.136Z" fill="white" fill-opacity="0.15"/>
<path d="M175.735 224.573C173.552 224.263 169.109 221.855 167.549 221.467L165.6 221.078C163.651 220.69 162.482 221.855 159.753 222.243C157.024 222.632 148.838 224.573 147.279 225.738C145.719 226.903 144.55 226.127 143.381 227.292C142.211 228.457 131.296 232.34 128.178 232.729C125.059 233.117 120.381 235.059 119.602 235.447C118.822 235.835 116.873 235.447 113.755 235.835C110.636 236.224 94.6536 241.661 89.9758 242.826C85.298 243.991 68.1461 243.602 65.8071 244.379C63.4682 245.156 47.4858 253.699 43.5876 253.699C39.6895 253.699 36.1811 255.253 34.6218 255.253C33.0626 255.253 24.4866 258.748 22.9274 258.748C21.3681 258.748 16.3005 259.913 14.3514 259.913C12.4023 259.913 7.72449 261.466 4.99579 262.243C2.26709 263.02 -0.0717773 262.243 -0.85144 262.243C-1.6311 262.243 -10.9867 266.903 -18.783 267.68C-26.5793 268.457 -32.4266 266.903 -34.3757 266.515C-36.3248 266.127 -40.6127 266.903 -42.9516 267.292C-45.2905 267.68 -48.0192 264.961 -50.7479 264.961C-53.4766 264.961 -60.8831 267.292 -63.222 267.68C-65.561 268.068 -73.3573 267.68 -75.3064 268.068C-77.2555 268.457 -81.9332 270.01 -83.4925 270.398C-85.0518 270.787 -88.1703 270.398 -91.6786 270.398C-94.4854 270.398 -96.7462 271.693 -97.5259 272.34H-110V357H926C914.955 354.411 816.033 328.85 802 324.5C784.458 319.063 731.584 315.33 719.5 313C707.416 310.67 662.796 295.442 655 293.5C647.204 291.558 597.517 278.165 593.229 277.777C588.941 277.389 567.501 277 558.145 277C548.79 277 539.044 273.505 532.417 272.728C525.79 271.952 504.74 273.117 498.893 273.117C493.046 273.117 482.911 271.952 479.402 271.563C475.894 271.175 458.352 265.738 455.234 265.35C452.115 264.961 430.675 265.35 427.557 265.738C424.438 266.127 416.642 265.738 415.083 265.738C413.523 265.738 401.439 264.573 393.253 264.185C385.067 263.796 371.423 261.855 365.576 261.078C359.729 260.301 357 257.583 354.661 257.195C352.322 256.806 348.424 256.806 345.305 256.029C342.187 255.253 334.391 254.864 328.154 253.699C321.917 252.534 314.9 249.428 312.951 249.039C311.002 248.651 308.663 249.428 305.934 249.428C303.205 249.428 287.223 246.321 282.155 245.932C277.088 245.544 263.054 246.709 260.715 245.932C258.376 245.156 259.936 243.214 257.207 241.661C254.478 240.107 252.529 240.107 251.36 240.107C250.19 240.107 235.377 237 231.869 235.835C228.361 234.67 217.056 233.117 214.327 232.34C211.599 231.564 206.531 226.903 204.582 227.292C202.633 227.68 192.108 229.233 190.938 229.233C189.769 229.233 188.599 226.903 185.481 225.738C182.362 224.573 178.464 224.962 175.735 224.573Z" fill="#275D9D"/>
<path d="M175.735 224.573C173.552 224.263 169.109 221.855 167.549 221.467L165.6 221.078C163.651 220.69 162.482 221.855 159.753 222.243C157.024 222.632 148.838 224.573 147.279 225.738C145.719 226.903 144.55 226.127 143.381 227.292C142.211 228.457 131.296 232.34 128.178 232.729C125.059 233.117 120.381 235.059 119.602 235.447C118.822 235.835 116.873 235.447 113.755 235.835C110.636 236.224 94.6536 241.661 89.9758 242.826C85.298 243.991 68.1461 243.602 65.8071 244.379C63.4682 245.156 47.4858 253.699 43.5876 253.699C39.6895 253.699 36.1811 255.253 34.6218 255.253C33.0626 255.253 24.4866 258.748 22.9274 258.748C21.3681 258.748 16.3005 259.913 14.3514 259.913C12.4023 259.913 7.72449 261.466 4.99579 262.243C2.26709 263.02 -0.0717773 262.243 -0.85144 262.243C-1.6311 262.243 -10.9867 266.903 -18.783 267.68C-26.5793 268.457 -32.4266 266.903 -34.3757 266.515C-36.3248 266.127 -40.6127 266.903 -42.9516 267.292C-45.2905 267.68 -48.0192 264.961 -50.7479 264.961C-53.4766 264.961 -60.8831 267.292 -63.222 267.68C-65.561 268.068 -73.3573 267.68 -75.3064 268.068C-77.2555 268.457 -81.9332 270.01 -83.4925 270.398C-85.0518 270.787 -88.1703 270.398 -91.6786 270.398C-94.4854 270.398 -96.7462 271.693 -97.5259 272.34H-110V357H926C914.955 354.411 816.033 328.85 802 324.5C784.458 319.063 731.584 315.33 719.5 313C707.416 310.67 662.796 295.442 655 293.5C647.204 291.558 597.517 278.165 593.229 277.777C588.941 277.389 567.501 277 558.145 277C548.79 277 539.044 273.505 532.417 272.728C525.79 271.952 504.74 273.117 498.893 273.117C493.046 273.117 482.911 271.952 479.402 271.563C475.894 271.175 458.352 265.738 455.234 265.35C452.115 264.961 430.675 265.35 427.557 265.738C424.438 266.127 416.642 265.738 415.083 265.738C413.523 265.738 401.439 264.573 393.253 264.185C385.067 263.796 371.423 261.855 365.576 261.078C359.729 260.301 357 257.583 354.661 257.195C352.322 256.806 348.424 256.806 345.305 256.029C342.187 255.253 334.391 254.864 328.154 253.699C321.917 252.534 314.9 249.428 312.951 249.039C311.002 248.651 308.663 249.428 305.934 249.428C303.205 249.428 287.223 246.321 282.155 245.932C277.088 245.544 263.054 246.709 260.715 245.932C258.376 245.156 259.936 243.214 257.207 241.661C254.478 240.107 252.529 240.107 251.36 240.107C250.19 240.107 235.377 237 231.869 235.835C228.361 234.67 217.056 233.117 214.327 232.34C211.599 231.564 206.531 226.903 204.582 227.292C202.633 227.68 192.108 229.233 190.938 229.233C189.769 229.233 188.599 226.903 185.481 225.738C182.362 224.573 178.464 224.962 175.735 224.573Z" fill="white" fill-opacity="0.35"/>
</g>
<defs>
<filter id="filter0_d" x="798" y="23" width="230" height="230" filterUnits="userSpaceOnUse" color-interpolation-filters="sRGB">
<feFlood flood-opacity="0" result="BackgroundImageFix"/>
<feColorMatrix in="SourceAlpha" type="matrix" values="0 0 0 0 0 0 0 0 0 0 0 0 0 0 0 0 0 0 127 0"/>
<feOffset dy="4"/>
<feGaussianBlur stdDeviation="2"/>
<feColorMatrix type="matrix" values="0 0 0 0 0 0 0 0 0 0 0 0 0 0 0 0 0 0 0.25 0"/>
<feBlend mode="normal" in2="BackgroundImageFix" result="effect1_dropShadow"/>
<feBlend mode="normal" in="SourceGraphic" in2="effect1_dropShadow" result="shape"/>
</filter>
<clipPath id="clip0">
<rect width="1440" height="335" fill="white"/>
</clipPath>
</defs>
</svg>
